# xmcd
#
# Track frame offsets:
#	150
#	13707
#	32530
#	48647
#	71945
#	95802
#	111910
#	128492
#	155542
#	173842
#
# Disc length: 2543 seconds
#
# Revision: 0
# Processed by: cddbd v1.4PL0 Copyright (c) Steve Scherf et al.
# Submitted via: audiograbber 1.81.02
#
DISCID=8609ed0a
DTITLE=Georgie Bonds and The Blueskeepers - Sometimes I Wonder
DYEAR=2001
DGENRE=Blues
TTITLE0=Billy Diamond Down  
TTITLE1=Sometimes I Wonder  
TTITLE2=Why Cry  
TTITLE3=Hole In The Wall  
TTITLE4=Stuck In Traffic  
TTITLE5=Tell Me One More Time  
TTITLE6=I've Paid My Dues  
TTITLE7=Killing Me  
TTITLE8=Don't Ask Me For No Money  
TTITLE9=Sorry Baby 
EXTD=BGB Productions 153\n© 2001\n
EXTT0=
EXTT1=
EXTT2=
EXTT3=
EXTT4=
EXTT5=
EXTT6=
EXTT7=
EXTT8=
EXTT9=
PLAYORDER=
